<svg xmlns="http://www.w3.org/2000/svg" viewBox="0 0 64 64" width="128" height="128" aria-hidden="true">
  <defs>
    <linearGradient id="g" x1="0" x2="1">
      <stop offset="0" stop-color="#ff8a80"/>
      <stop offset="1" stop-color="#ff5252"/>
    </linearGradient>
  </defs>
  <g fill="none" fill-rule="evenodd">
    <path d="M18 46c0 0-2 6 9 10l2-9-11-1z" fill="#ffcc80"/>
    <path d="M42 6c-6 2-20 12-24 18-4 6-6 18-3 24 3 6 12 10 18 10s14-4 18-10c4-6 3-18-3-24-6-6-12-16-6-18z" fill="url(#g)"/>
    <circle cx="38" cy="22" r="4" fill="#fff" opacity="0.85"/>
    <path d="M34 50c3 2 8 2 12 0" stroke="#fff" stroke-width="2" stroke-linecap="round" opacity="0.25"/>
  </g>
</svg>
